<svg width="240" height="160" viewBox="0 0 240 160" fill="none" xmlns="http://www.w3.org/2000/svg">
<path d="M60.2783 63.3504C60.2029 62.6522 60.1038 62.0334 59.9768 61.494C58.9931 54.2508 56.0498 51.3671 51.155 52.8466C46.7837 54.2548 42.5632 58.5983 38.4934 65.8732C34.0071 58.5983 29.5446 54.112 25.1019 52.4182C19.8738 53.1164 17.0337 57.1901 16.5815 64.6356L16.5339 121.168L13.7572 124.072C13.789 128.102 14.0746 130.653 14.614 131.72C15.4788 133.001 16.5894 133.87 17.946 134.322C18.3982 134.409 18.8346 134.449 19.2471 134.449C20.2705 134.449 21.1551 134.203 21.8968 133.703C22.8052 132.965 23.3169 132.081 23.4359 131.053C23.4756 130.8 23.4994 130.554 23.4994 130.308C23.4994 129.768 23.42 129.316 23.2614 128.943C23.1344 129.443 22.9282 130.038 22.6426 130.736C21.9444 131.934 20.8893 132.616 19.4851 132.783C19.2828 132.815 19.0765 132.83 18.8663 132.83C17.1844 132.672 15.9944 131.875 15.2963 130.435C15.0424 129.78 14.9155 128.975 14.9155 128.023C15.0821 126.627 15.6216 125.619 16.5339 124.992C17.3471 124.381 18.2515 124.072 19.2471 124.072H19.4851C20.3498 124.159 21.1749 124.635 21.9603 125.5C21.6747 124.508 21.5319 123.477 21.5319 122.406C21.5319 121.581 21.6311 120.764 21.8334 119.947C22.5712 115.948 24.9988 113.374 29.1162 112.22C28.418 112.434 27.9024 113.172 27.5771 114.441C27.4065 114.897 27.3232 115.417 27.3232 115.996C27.3232 117.892 28.1483 120.375 29.7984 123.453C31.036 125.389 31.6548 127.491 31.6548 129.752C31.6548 132.176 31.155 134.211 30.1634 135.861C28.2673 138.78 25.7604 140.554 22.6426 141.176C21.9008 141.291 21.1194 141.351 20.2943 141.351C18.5252 141.351 16.8393 141.041 15.2328 140.431C10.2507 138.17 7.82311 133.394 7.95004 126.103V61.7954C8.77511 55.302 11.2225 50.062 15.2963 46.0716C23.3566 39.5662 30.9884 42.0732 38.1919 53.5924C43.174 45.4052 49.6714 41.8471 57.692 42.9141C61.7619 44.7229 64.7051 47.3369 66.5139 50.7522C68.3227 54.1715 69.3541 57.7732 69.6079 61.5574C69.6476 62.1723 69.6714 62.7911 69.6714 63.4138V126.547C69.5008 134.568 65.5302 139.606 57.7555 141.668V133.64C58.2831 132.858 58.7154 132.259 59.0566 131.847C59.7111 130.45 60.1593 128.459 60.4052 125.865L60.2783 63.3504Z" fill="#00702D"/>
<path d="M63.2424 19.4632C66.6061 24.1597 68.169 27.3568 67.923 29.0466C67.6811 30.7285 66.614 31.736 64.718 32.0613C48.6292 28.2771 31.2472 25.1276 12.5642 22.6206C10.3429 22.3271 9.52576 20.677 10.1049 17.6702C11.4179 11.7044 14.6864 7.44812 19.9105 4.89755C24.4801 2.76349 29.9144 2.14865 36.2056 3.05702C38.9584 3.30295 43.0084 4.65559 48.3594 7.11889C54.4522 10.0066 59.4145 14.124 63.2424 19.4632ZM57.7366 23.6678C56.2134 21.2799 52.8418 18.5389 47.6137 15.4489C42.6871 13.1562 38.9267 11.7797 36.3325 11.3236C32.5483 10.6691 29.0457 10.6889 25.8288 11.387C21.5567 12.2438 19.2758 14.0328 18.9902 16.75C21.7828 16.9959 24.9323 17.3648 28.4309 17.8606C35.0116 18.646 44.7815 20.5818 57.7366 23.6678Z" fill="#00702D"/>
<path d="M201.467 51.498C201.625 52.2834 201.705 53.1005 201.705 53.9573C201.705 56.2223 201.026 58.3008 199.674 60.1929C197.948 63.2829 197.087 65.7938 197.087 67.7296C197.087 68.3008 197.167 68.8164 197.325 69.2686C197.611 70.5062 198.166 71.2282 198.991 71.4265C194.017 70.3158 191.348 67.7454 190.979 63.7153C190.808 62.8902 190.725 62.0652 190.725 61.2401C190.725 60.1731 190.887 59.1457 191.217 58.162C190.348 59.0743 189.444 59.5424 188.504 59.5741H188.377C187.266 59.5741 186.258 59.2687 185.362 58.6538C184.366 58.043 183.767 57.0354 183.569 55.6392C183.569 54.7308 183.751 53.9256 184.124 53.2274C184.822 51.7915 186.052 51.0061 187.821 50.8792C188.063 50.8792 188.289 50.903 188.504 50.9426C190.066 51.1013 191.221 51.7598 191.962 52.9101C192.288 53.6519 192.494 54.2508 192.581 54.703C192.78 54.3341 192.883 53.9018 192.883 53.402C192.883 53.16 192.839 52.8942 192.756 52.6086C192.637 51.5852 192.062 50.7007 191.026 49.9589C190.285 49.4194 189.4 49.1497 188.377 49.1497C187.845 49.1497 187.333 49.2132 186.838 49.3401C185.398 49.7963 184.223 50.657 183.315 51.9264C182.784 52.9974 182.684 55.7939 183.014 60.3198C184.124 67.2694 188.646 73.2789 196.58 78.3444L197.198 79.6454V120.058C195.302 128.086 190.788 133.941 183.648 137.622C176.516 141.303 168.25 141.803 158.849 139.13C149.444 136.456 143.589 130.76 141.284 122.041V94.7029C140.872 87.1742 137.453 82.2277 131.034 79.8676C124.624 77.4995 117.203 77.4043 108.774 79.582C102.435 82.2912 98.6704 86.8767 97.4764 93.3384V121.105L95.1916 124.072C95.2313 128.063 95.5407 130.609 96.1119 131.72C96.9766 133.001 98.1111 133.87 99.5074 134.322C99.9596 134.441 100.416 134.496 100.872 134.496C101.895 134.496 102.8 134.235 103.585 133.703C104.482 132.922 105.017 132.017 105.188 130.99C105.227 130.736 105.251 130.49 105.251 130.244C105.251 129.717 105.144 129.284 104.934 128.943C104.858 129.399 104.652 129.974 104.315 130.673C103.617 131.871 102.546 132.553 101.11 132.719C100.908 132.763 100.701 132.783 100.491 132.783C98.722 132.616 97.4923 131.811 96.7942 130.371C96.5482 129.717 96.4292 128.935 96.4292 128.023C96.5443 126.627 97.0798 125.619 98.0318 124.992C98.8886 124.381 99.8326 124.072 100.872 124.072H101.11C101.975 124.116 102.824 124.572 103.649 125.437C103.351 124.485 103.204 123.453 103.204 122.343C103.204 121.518 103.307 120.7 103.522 119.883C104.259 115.885 106.766 113.311 111.042 112.156C110.344 112.37 109.809 113.092 109.44 114.33C109.281 114.818 109.202 115.33 109.202 115.869C109.202 117.848 110.043 120.375 111.725 123.453C113.046 125.349 113.708 127.428 113.708 129.689C113.708 132.124 113.188 134.179 112.153 135.861C110.186 138.78 107.572 140.554 104.315 141.176C103.573 141.291 102.796 141.351 101.983 141.351C100.13 141.351 98.3808 141.041 96.7307 140.431C91.5899 138.17 88.956 133.457 88.8291 126.293V91.9262C88.8688 87.6859 90.2968 83.8461 93.1131 80.407C95.9374 76.9719 98.4046 74.8934 100.523 74.1714C102.649 73.4535 103.831 73.0528 104.077 72.9656C100.245 70.5856 97.2226 66.7855 95.0012 61.5574C92.7799 54.4809 94.2595 48.9871 99.4439 45.072C101.546 44.0882 103.831 43.3703 106.298 42.9141C107.409 42.7158 108.496 42.573 109.567 42.4857C114.22 42.2001 118.333 43.168 121.911 45.3893C124.006 46.6586 125.465 48.404 126.29 50.6253C127.072 52.688 126.909 54.7467 125.798 56.7974C124.601 60.0144 124.331 62.5055 124.989 64.2706C125.156 64.8101 125.426 65.2663 125.798 65.6352C126.624 66.7062 127.611 67.2377 128.766 67.2377C121.887 67.3964 117.504 65.6907 115.612 62.1128C115.124 61.375 114.755 60.6332 114.501 59.8914C114.129 58.9394 113.986 57.9716 114.073 56.9878C113.248 58.0152 112.221 58.6538 110.995 58.9077L110.868 58.9712C109.428 59.2171 108.004 59.1735 106.6 58.8442C105.077 58.519 103.942 57.7336 103.204 56.496C102.919 55.6709 102.903 54.8895 103.157 54.1477C103.557 52.6681 104.89 51.6646 107.155 51.133C107.492 51.0934 107.782 51.0696 108.028 51.0696C110.122 50.8157 111.852 51.1251 113.216 51.9898C113.914 52.6047 114.382 53.0965 114.628 53.4654C114.795 53.0965 114.795 52.688 114.628 52.2437C114.541 52.0335 114.398 51.8074 114.2 51.5614C113.66 50.6531 112.589 49.9708 110.995 49.5146C109.841 49.229 108.603 49.2132 107.282 49.467C106.584 49.586 105.925 49.7487 105.315 49.9589C103.577 50.7443 102.34 51.8113 101.602 53.164C101.273 54.2746 102.117 56.8688 104.14 60.9386C106.489 65.0957 110.396 68.1818 115.866 70.1889C116.108 70.1572 116.374 70.1215 116.659 70.0778C122.379 68.4713 129.829 69.7248 139 73.8382C146.203 78.1143 150.074 84.2626 150.614 92.2912V120.439C151.225 125.127 154.604 128.59 160.753 130.831C166.909 133.076 172.97 133.017 178.936 130.657C184.902 128.289 188.091 123.501 188.504 116.297V111.855H188.567V82.1048C180.419 76.9243 176.036 69.229 175.414 59.0188C175.255 50.7602 178.095 45.4964 183.934 43.2314C185.699 42.6087 187.528 42.2953 189.424 42.2953C190.289 42.2953 191.114 42.3389 191.899 42.4222C193.581 42.7078 195.08 43.3068 196.405 44.2152C205.862 42.1525 213.101 41.8629 218.127 43.3425C224.957 45.3655 229.741 48.2374 232.47 51.9581C235.207 55.6828 236.806 60.0779 237.262 65.1433V126.23C237.175 133.433 234.541 138.17 229.36 140.431C227.71 141.041 225.957 141.351 224.108 141.351C223.283 141.351 222.482 141.291 221.712 141.176C218.452 140.554 215.842 138.78 213.874 135.861C212.835 134.179 212.319 132.124 212.319 129.689C212.319 127.384 212.978 125.286 214.303 123.39C215.985 120.312 216.826 117.785 216.826 115.806C216.826 115.226 216.746 114.711 216.588 114.266C216.215 113.029 215.683 112.311 214.985 112.109C219.257 113.219 221.784 115.79 222.569 119.82C222.768 120.645 222.871 121.466 222.871 122.279C222.871 123.39 222.704 124.445 222.379 125.437C223.204 124.528 224.069 124.052 224.981 124.009H225.156C226.234 124.009 227.202 124.322 228.059 124.945C228.967 125.56 229.503 126.563 229.662 127.959C229.662 128.911 229.539 129.717 229.297 130.371C228.555 131.811 227.321 132.616 225.6 132.783C225.386 132.783 225.179 132.763 224.981 132.719C223.541 132.553 222.45 131.871 221.712 130.673C221.415 129.935 221.209 129.34 221.094 128.896C220.879 129.268 220.776 129.697 220.776 130.181C220.776 130.466 220.796 130.736 220.84 130.99C221.006 132.017 221.562 132.922 222.506 133.703C223.244 134.203 224.128 134.449 225.156 134.449C225.651 134.449 226.127 134.409 226.584 134.322C227.98 133.87 229.11 132.985 229.979 131.672C230.55 130.593 230.856 128.039 230.899 124.009L228.44 121.057V65.6352C227.571 58.2215 223.7 53.4456 216.826 51.3076C212.137 50.1572 207.02 50.2207 201.467 51.498Z" fill="#00702D"/>
<mask id="mask0_1629_3101" style="mask-type:luminance" maskUnits="userSpaceOnUse" x="54" y="76" width="39" height="39">
<path d="M54.875 76.3834H92.7487V114.257H54.875V76.3834Z" fill="white"/>
</mask>
<g mask="url(#mask0_1629_3101)">
<mask id="mask1_1629_3101" style="mask-type:luminance" maskUnits="userSpaceOnUse" x="54" y="76" width="39" height="39">
<path d="M73.8119 76.3834C63.3518 76.3834 54.875 84.8602 54.875 95.3203C54.875 105.78 63.3518 114.257 73.8119 114.257C84.268 114.257 92.7487 105.78 92.7487 95.3203C92.7487 84.8602 84.268 76.3834 73.8119 76.3834Z" fill="white"/>
</mask>
<g mask="url(#mask1_1629_3101)">
<path d="M54.875 76.3834H92.7487V114.257H54.875V76.3834Z" fill="#00702D"/>
</g>
</g>
<mask id="mask2_1629_3101" style="mask-type:luminance" maskUnits="userSpaceOnUse" x="54" y="76" width="39" height="39">
<path d="M54.875 76.3834H92.7408V114.249H54.875V76.3834Z" fill="white"/>
</mask>
<g mask="url(#mask2_1629_3101)">
<mask id="mask3_1629_3101" style="mask-type:luminance" maskUnits="userSpaceOnUse" x="54" y="76" width="39" height="39">
<path d="M73.8079 76.3834C63.3518 76.3834 54.875 84.8602 54.875 95.3163C54.875 105.772 63.3518 114.249 73.8079 114.249C84.264 114.249 92.7408 105.772 92.7408 95.3163C92.7408 84.8602 84.264 76.3834 73.8079 76.3834Z" fill="white"/>
</mask>
<g mask="url(#mask3_1629_3101)">
<path d="M73.8079 76.3834C63.3518 76.3834 54.875 84.8602 54.875 95.3163C54.875 105.772 63.3518 114.249 73.8079 114.249C84.264 114.249 92.7408 105.772 92.7408 95.3163C92.7408 84.8602 84.264 76.3834 73.8079 76.3834Z" stroke="#FAFAFA" stroke-width="4"/>
</g>
</g>
<mask id="mask4_1629_3101" style="mask-type:luminance" maskUnits="userSpaceOnUse" x="121" y="76" width="38" height="39">
<path d="M121.003 76.3834H158.877V114.257H121.003V76.3834Z" fill="white"/>
</mask>
<g mask="url(#mask4_1629_3101)">
<mask id="mask5_1629_3101" style="mask-type:luminance" maskUnits="userSpaceOnUse" x="121" y="76" width="38" height="39">
<path d="M139.94 76.3834C129.48 76.3834 121.003 84.8602 121.003 95.3203C121.003 105.78 129.48 114.257 139.94 114.257C150.396 114.257 158.877 105.78 158.877 95.3203C158.877 84.8602 150.396 76.3834 139.94 76.3834Z" fill="white"/>
</mask>
<g mask="url(#mask5_1629_3101)">
<path d="M121.003 76.3834H158.877V114.257H121.003V76.3834Z" fill="#00702D"/>
</g>
</g>
<mask id="mask6_1629_3101" style="mask-type:luminance" maskUnits="userSpaceOnUse" x="121" y="76" width="38" height="39">
<path d="M121.003 76.3834H158.869V114.249H121.003V76.3834Z" fill="white"/>
</mask>
<g mask="url(#mask6_1629_3101)">
<mask id="mask7_1629_3101" style="mask-type:luminance" maskUnits="userSpaceOnUse" x="121" y="76" width="38" height="39">
<path d="M139.936 76.3834C129.476 76.3834 121.003 84.8602 121.003 95.3163C121.003 105.772 129.476 114.249 139.936 114.249C150.392 114.249 158.869 105.772 158.869 95.3163C158.869 84.8602 150.392 76.3834 139.936 76.3834Z" fill="white"/>
</mask>
<g mask="url(#mask7_1629_3101)">
<path d="M139.936 76.3834C129.476 76.3834 121.003 84.8602 121.003 95.3163C121.003 105.772 129.476 114.249 139.936 114.249C150.392 114.249 158.869 105.772 158.869 95.3163C158.869 84.8602 150.392 76.3834 139.936 76.3834Z" stroke="#FAFAFA" stroke-width="4"/>
</g>
</g>
<mask id="mask8_1629_3101" style="mask-type:luminance" maskUnits="userSpaceOnUse" x="132" y="85" width="15" height="52">
<path d="M132.792 85.6456H146.719V136.673H132.792V85.6456Z" fill="white"/>
</mask>
<g mask="url(#mask8_1629_3101)">
<path d="M140.082 85.7452C142.856 85.7452 145.277 87.9617 146.425 91.2169L146.532 91.5352C146.82 92.7231 146.94 94.1143 146.808 95.7383L146.734 96.4503C146.479 98.4883 145.888 100.454 145.009 102.278L144.829 102.641L144.828 102.642C144.586 103.124 144.321 103.597 144.037 104.059L143.747 104.516C143.196 105.358 142.575 106.217 141.99 106.838L141.743 107.089H141.742C141.665 107.163 141.604 107.275 141.552 107.41C141.499 107.547 141.452 107.717 141.412 107.914L141.41 107.926V107.937L141.891 127.596V127.598L141.902 127.856V127.905C141.902 127.907 141.902 127.91 141.901 127.914C141.9 127.921 141.898 127.935 141.898 127.95V127.952L141.91 128.523V128.536C142.097 131.393 142.26 133.842 142.323 135.32V135.328L142.324 135.336C142.326 135.344 142.327 135.358 142.327 135.38C142.327 135.542 142.245 135.707 142.094 135.868C141.943 136.029 141.732 136.176 141.492 136.303C141.011 136.557 140.44 136.712 140.082 136.712C139.715 136.712 139.137 136.548 138.655 136.281C138.416 136.149 138.205 135.994 138.059 135.827C137.93 135.681 137.855 135.532 137.843 135.384L137.842 135.32C137.875 134.536 137.937 133.48 138.015 132.236L138.286 128.02C138.417 125.982 138.556 123.758 138.677 121.547L138.79 119.347V119.343L138.888 117.11C138.973 114.922 139.019 112.889 138.995 111.234C138.979 110.131 138.932 109.193 138.844 108.486C138.8 108.134 138.745 107.835 138.678 107.603C138.629 107.431 138.571 107.286 138.499 107.181L138.422 107.089L138.175 106.838C137.758 106.394 137.323 105.83 136.908 105.236L136.422 104.516H136.421C136.122 104.063 135.846 103.597 135.588 103.12L135.336 102.641C134.422 100.835 133.786 98.8843 133.489 96.8565L133.435 96.4503C133.194 94.5166 133.304 92.8931 133.637 91.5352C134.732 88.1074 137.219 85.7454 140.082 85.7452ZM141.187 87.2071L141.115 87.3926C142.453 88.0808 143.603 89.4144 144.326 91.1397H144.327C144.696 92.2215 144.901 93.5381 144.846 95.1339C144.791 96.6991 144.491 98.2346 143.976 99.6924L143.742 100.313V100.314C143.58 100.724 143.399 101.129 143.201 101.524L142.997 101.917C142.554 102.749 142.042 103.601 141.559 104.159C141.499 104.227 141.455 104.324 141.423 104.437C141.39 104.55 141.366 104.689 141.348 104.849L141.534 104.909L141.565 104.871L141.572 104.864C141.983 104.468 142.421 103.907 142.834 103.318L143.236 102.726V102.725C143.482 102.348 143.712 101.962 143.926 101.568L144.134 101.173H144.135C144.941 99.5767 145.487 97.8439 145.707 96.043C145.907 94.4377 145.815 93.0839 145.538 91.9444H145.539L145.537 91.9376L145.382 91.4922C144.561 89.3033 143.031 87.6788 141.187 87.2071Z" fill="#FAFAFA" stroke="black" stroke-width="0.2"/>
</g>
<mask id="mask9_1629_3101" style="mask-type:luminance" maskUnits="userSpaceOnUse" x="67" y="85" width="13" height="52">
<path d="M79.3291 85.7452V136.572H67.9893V85.7452H79.3291Z" fill="white" stroke="white" stroke-width="0.2"/>
</mask>
<g mask="url(#mask9_1629_3101)">
<path d="M72.5156 110.034C72.4929 108.872 72.1198 107.592 71.374 106.657L71.2207 106.476C70.8204 106.03 70.4146 105.627 70.0391 105.237C69.6623 104.847 69.3141 104.468 69.0205 104.063C68.4728 103.306 68.1131 102.455 68.1279 101.265L68.1357 101.022L68.9287 86.1905C68.9418 85.9385 69.148 85.7452 69.3965 85.7452C69.659 85.7452 69.8682 85.9553 69.8682 86.213V102.119C69.8682 102.572 70.2375 102.939 70.6904 102.931L70.7812 102.925C71.1974 102.874 71.4871 102.502 71.4873 102.1V86.3995C71.4873 86.0382 71.7803 85.7452 72.1416 85.7452C72.5028 85.7453 72.7949 86.0383 72.7949 86.3995V102.119C72.795 102.566 73.1556 102.931 73.6045 102.928V102.929C74.054 102.933 74.415 102.566 74.415 102.119V86.3995C74.415 86.0382 74.7081 85.7452 75.0693 85.7452C75.4304 85.7454 75.7227 86.0384 75.7227 86.3995V102.1C75.7228 102.476 75.9777 102.827 76.3496 102.911L76.4248 102.925C76.9175 102.988 77.3427 102.603 77.3428 102.119V86.213C77.3428 85.9549 77.5515 85.7453 77.8096 85.7452C78.0308 85.7452 78.216 85.8933 78.2676 86.0987L78.2812 86.1905L79.0742 101.022C79.1442 102.34 78.7746 103.256 78.1904 104.063C77.8968 104.468 77.5477 104.847 77.1709 105.237C76.8893 105.529 76.5915 105.829 76.291 106.148L75.9902 106.476C75.1947 107.363 74.7735 108.625 74.7041 109.801L74.6953 110.034V110.036C74.6953 110.091 74.6944 110.146 74.6934 110.201C74.6924 110.257 74.6914 110.314 74.6914 110.37L74.6875 110.508V110.516C74.6168 117.093 75.5298 129.134 75.8008 134.322L75.8457 135.265V135.328L75.8418 135.392C75.824 135.541 75.7435 135.692 75.6113 135.838C75.4607 136.004 75.2489 136.157 75.0098 136.288C74.529 136.551 73.9608 136.712 73.6055 136.712C73.2481 136.712 72.6796 136.551 72.1992 136.288C71.9603 136.157 71.7489 136.004 71.5986 135.838C71.448 135.671 71.3653 135.499 71.3652 135.328V135.261H71.3643C71.5428 131.037 72.4715 119.149 72.5215 111.9L72.5195 110.516V110.37L72.5176 110.201C72.5166 110.146 72.5156 110.091 72.5156 110.036V110.034Z" fill="#FAFAFA" stroke="black" stroke-width="0.2"/>
</g>
<mask id="mask10_1629_3101" style="mask-type:luminance" maskUnits="userSpaceOnUse" x="0" y="148" width="45" height="11">
<path d="M0.0351562 148.497H44.799V158.648H0.0351562V148.497Z" fill="white"/>
</mask>
<g mask="url(#mask10_1629_3101)">
<mask id="mask11_1629_3101" style="mask-type:luminance" maskUnits="userSpaceOnUse" x="0" y="148" width="45" height="11">
<path d="M5.10852 148.497H39.6939C42.4983 148.497 44.7712 150.77 44.7712 153.575C44.7712 156.375 42.4983 158.648 39.6939 158.648H5.10852C2.30409 158.648 0.0351562 156.375 0.0351562 153.575C0.0351562 150.77 2.30409 148.497 5.10852 148.497Z" fill="white"/>
</mask>
<g mask="url(#mask11_1629_3101)">
<path d="M0.0351562 148.497H44.7593V158.648H0.0351562V148.497Z" fill="#00702D"/>
</g>
</g>
<path d="M7.65913 155.76H4.2002V150.746H7.6274V151.571H5.12046V152.824H7.2942V153.602H5.12046V154.935H7.65913V155.76Z" fill="#FAFAFA"/>
<path d="M9.79149 155.871C9.51383 155.871 9.27186 155.831 9.06163 155.76C8.85933 155.688 8.68876 155.593 8.55389 155.474C8.42696 155.347 8.32383 155.204 8.25243 155.046C8.18896 154.887 8.15723 154.724 8.15723 154.554H9.01403C9.02196 154.724 9.09336 154.871 9.22029 154.998C9.35516 155.117 9.54556 155.173 9.79149 155.173C10.0216 155.173 10.1921 155.133 10.2992 155.046C10.4143 154.951 10.4738 154.832 10.4738 154.681C10.4738 154.578 10.442 154.498 10.3786 154.443C10.3151 154.379 10.2239 154.332 10.1088 154.3C9.98983 154.26 9.84703 154.221 9.68043 154.189C9.49003 154.169 9.30756 154.133 9.14096 154.078C8.98229 154.026 8.83949 153.959 8.71256 153.872C8.59356 153.776 8.49836 153.661 8.42696 153.523C8.35159 153.388 8.31589 153.221 8.31589 153.031C8.31589 152.789 8.36746 152.582 8.47456 152.412C8.58959 152.233 8.75223 152.095 8.96643 151.999C9.17666 151.904 9.43449 151.857 9.74389 151.857C10.0493 151.857 10.3151 151.912 10.5372 152.015C10.7673 152.11 10.9498 152.253 11.0767 152.444C11.2036 152.626 11.2671 152.836 11.2671 153.078L10.3944 153.062C10.3825 152.928 10.323 152.817 10.2199 152.729C10.1128 152.634 9.95413 152.586 9.74389 152.586C9.55349 152.586 9.41069 152.63 9.31549 152.713C9.22823 152.789 9.18856 152.884 9.18856 152.999C9.18856 153.094 9.20839 153.174 9.25203 153.237C9.29169 153.293 9.37103 153.34 9.49003 153.38C9.60506 153.412 9.76769 153.451 9.98189 153.491C10.1802 153.515 10.3667 153.55 10.5372 153.602C10.7038 153.657 10.8546 153.725 10.9815 153.808C11.1084 153.895 11.2036 154.007 11.2671 154.141C11.3385 154.268 11.3782 154.435 11.3782 154.633C11.3782 154.911 11.3068 155.141 11.1719 155.331C11.0331 155.514 10.8427 155.649 10.6007 155.744C10.3667 155.827 10.0969 155.871 9.79149 155.871Z" fill="#FAFAFA"/>
<path d="M14.4529 155.76H13.6755C13.5684 155.76 13.4533 155.752 13.3264 155.728C13.2074 155.708 13.0963 155.672 12.9932 155.617C12.8861 155.553 12.7909 155.47 12.7076 155.363C12.6203 155.26 12.5529 155.121 12.5013 154.951C12.4458 154.784 12.422 154.57 12.422 154.316V152.729H11.6445V151.968H12.422V150.857H13.3105V151.968H14.4529V152.729H13.3105V154.363C13.3105 154.534 13.3343 154.673 13.3899 154.776C13.4414 154.871 13.5089 154.935 13.5961 154.966C13.6794 154.998 13.7707 155.014 13.8659 155.014H14.4529V155.76Z" fill="#FAFAFA"/>
<path d="M15.6496 155.855C15.5425 155.855 15.4473 155.827 15.364 155.776C15.2886 155.736 15.2291 155.676 15.1894 155.601C15.1458 155.53 15.126 155.45 15.126 155.363C15.126 155.28 15.1458 155.2 15.1894 155.125C15.2291 155.042 15.2886 154.978 15.364 154.935C15.4473 154.895 15.5425 154.871 15.6496 154.871C15.7527 154.871 15.8439 154.895 15.9193 154.935C15.9907 154.978 16.0502 155.042 16.0938 155.125C16.1454 155.2 16.1732 155.28 16.1732 155.363C16.1732 155.502 16.1256 155.617 16.0304 155.712C15.9352 155.807 15.8082 155.855 15.6496 155.855Z" fill="#FAFAFA"/>
<path d="M21.6736 155.76C20.0433 155.76 19.2302 155.268 19.2302 154.284V151.127H18.8652V150.413H19.9283C20.0949 150.413 20.206 150.452 20.2615 150.524C20.3131 150.587 20.3408 150.682 20.3408 150.809V154.284C20.3408 154.792 20.7851 155.046 21.6736 155.046C22.5701 155.046 23.0223 154.792 23.0223 154.284V152.158L22.4511 152.602L21.9116 152.158V152.84H22.0544V153.554H20.7851V151.333H21.9116L22.4511 151.777L23.0223 151.333H24.1171V154.284C24.1171 155.268 23.3 155.76 21.6736 155.76Z" fill="#FAFAFA"/>
<path d="M27.3352 155.76C26.0857 155.76 25.4629 155.292 25.4629 154.348V152.745C25.4629 151.805 26.0857 151.333 27.3352 151.333C28.5807 151.333 29.2074 151.805 29.2074 152.745V154.348C29.2074 155.292 28.5807 155.76 27.3352 155.76ZM27.3352 155.046C27.8429 155.046 28.0968 154.816 28.0968 154.348V152.745C28.0968 152.281 27.8429 152.047 27.3352 152.047C26.8274 152.047 26.5736 152.281 26.5736 152.745V154.348C26.5736 154.816 26.8274 155.046 27.3352 155.046Z" fill="#FAFAFA"/>
<path d="M33.0672 155.76C31.4369 155.76 30.6237 155.268 30.6237 154.284V151.127H30.2588V150.413H31.3219C31.4885 150.413 31.5995 150.452 31.6551 150.524C31.7066 150.587 31.7344 150.682 31.7344 150.809V154.284C31.7344 154.792 32.1787 155.046 33.0672 155.046C33.9637 155.046 34.4159 154.792 34.4159 154.284V152.158L33.8447 152.602L33.3052 152.158V152.84H33.448V153.554H32.1787V151.333H33.3052L33.8447 151.777L34.4159 151.333H35.5107V154.284C35.5107 155.268 34.6935 155.76 33.0672 155.76Z" fill="#FAFAFA"/>
<path d="M38.7287 155.76C37.4792 155.76 36.8564 155.355 36.8564 154.538V152.824C36.8564 152.57 36.8921 152.364 36.9675 152.206C37.0389 152.047 37.1817 151.904 37.3959 151.777C37.3324 151.706 37.2769 151.63 37.2372 151.555C37.2055 151.472 37.1896 151.365 37.1896 151.238C37.1896 151.123 37.2214 151.012 37.2848 150.904C37.3562 150.789 37.4594 150.694 37.5863 150.619C37.7132 150.536 37.8719 150.492 38.0623 150.492C38.2289 150.492 38.3717 150.532 38.4907 150.603C38.6176 150.678 38.7128 150.77 38.7763 150.873C38.8398 150.98 38.8715 151.087 38.8715 151.19C38.8715 151.317 38.8477 151.42 38.808 151.492C38.7763 151.567 38.7366 151.634 38.697 151.698C38.7922 151.741 38.8715 151.769 38.935 151.777C39.0064 151.789 39.0778 151.789 39.1412 151.777C39.2444 151.777 39.3316 151.745 39.3951 151.682C39.4586 151.611 39.4903 151.515 39.4903 151.396V150.365H40.601V151.301C40.601 151.65 40.474 151.932 40.2202 152.142C39.9742 152.356 39.6212 152.459 39.1571 152.459C38.9667 152.459 38.7961 152.44 38.6494 152.396C38.4986 152.356 38.3519 152.297 38.2051 152.221C38.1297 152.277 38.0702 152.356 38.0306 152.459C37.9869 152.555 37.9671 152.678 37.9671 152.824V154.538C37.9671 154.879 38.221 155.046 38.7287 155.046H39.6331L38.9191 154.395V153.554C38.9191 153.058 39.1492 152.808 39.6172 152.808H40.601V153.602H40.0139V154.3L40.6327 155.157L40.3947 155.76H38.7287Z" fill="#FAFAFA"/>
<mask id="mask12_1629_3101" style="mask-type:luminance" maskUnits="userSpaceOnUse" x="181" y="15" width="20" height="22">
<path d="M181.757 15.0825H200.035V36.4073H181.757V15.0825Z" fill="white"/>
</mask>
<g mask="url(#mask12_1629_3101)">
<path d="M181.785 25.5466C181.888 23.3332 182.309 21.0881 183.411 19.1682C184.514 17.2444 186.374 15.6775 188.56 15.3047C189.822 15.0905 191.325 15.3999 191.952 16.5185C192.328 17.1928 192.301 18.0377 192.055 18.7715C191.813 19.5054 191.368 20.1559 190.932 20.7945C189.254 23.2539 187.572 25.7132 185.891 28.1725C185.054 29.4022 184.213 30.6319 183.372 31.8615C183.015 32.3891 182.642 32.8453 182.36 32.04C182.138 31.4133 182.083 30.6676 181.991 30.0091C181.888 29.2554 181.817 28.4899 181.785 27.7283C181.753 27.0579 181.936 26.1892 181.785 25.5506V25.5466ZM188.945 27.2285C188.159 27.9623 187.418 28.7517 186.735 29.5847C186.208 30.2312 185.046 31.3816 184.935 32.2027C186.271 31.8219 187.561 31.1317 188.901 30.7072C190.27 30.2749 191.67 29.9218 193.082 29.6521C194.264 29.426 195.47 29.2594 196.593 28.8191C197.715 28.3828 198.77 27.6331 199.286 26.5422C199.806 25.4554 199.651 24.0036 198.719 23.238C198.104 22.7263 197.247 22.5835 196.454 22.6906C195.66 22.8017 194.919 23.1388 194.209 23.5077C192.297 24.4994 190.524 25.7608 188.945 27.2285ZM195.149 18.3669C195.212 18.7477 195.454 19.0809 195.76 19.315C196.065 19.549 196.43 19.6878 196.803 19.787C197.66 20.021 198.687 20.0012 199.302 19.3626C199.913 18.7279 199.873 17.6291 199.318 16.9429C198.774 16.2686 197.747 15.8878 196.93 16.2011C196.077 16.5304 194.978 17.3237 195.149 18.3669ZM185.752 34.063C185.752 34.063 186.72 34.9436 189.445 36.094C189.885 36.2804 190.357 36.4232 190.837 36.4113C191.317 36.4034 191.821 36.1931 192.055 35.7766C192.376 35.2134 192.094 34.4557 191.587 34.0551C191.079 33.6584 190.405 33.5355 189.762 33.4839C187.723 33.3292 185.752 34.063 185.752 34.063Z" fill="#00702D"/>
</g>
<path d="M159.692 31.6942C160.227 31.6942 160.679 31.7959 161.042 31.9852V31.9843C161.36 32.1532 161.606 32.382 161.784 32.6708L161.856 32.7987L161.857 32.8007C162.047 33.1453 162.146 33.5456 162.146 34.0067C162.146 34.4103 162.071 34.7696 161.925 35.0809L161.857 35.2108C161.689 35.5106 161.452 35.7532 161.146 35.9364L161.012 36.0116L161.01 36.0126C160.647 36.2052 160.196 36.3026 159.66 36.3026H158.291V38.619H156.983V31.6942H159.692ZM158.291 35.2968H159.423C159.86 35.2967 160.207 35.1803 160.446 34.9325L160.445 34.9315C160.687 34.6887 160.808 34.3783 160.808 34.0067C160.808 33.6746 160.716 33.3931 160.529 33.1698L160.444 33.078C160.205 32.8311 159.854 32.7167 159.406 32.7167H158.291V35.2968Z" fill="#00702D" stroke="white" stroke-width="0.2"/>
<path d="M164.643 31.6942V38.619H163.335V31.6942H164.643Z" fill="#00702D" stroke="white" stroke-width="0.2"/>
<path d="M168.651 31.5831C169.103 31.5831 169.499 31.6549 169.844 31.795L169.988 31.8595L169.99 31.8605C170.328 32.0141 170.592 32.2188 170.788 32.4738L170.868 32.5861L170.87 32.588C171.062 32.8617 171.169 33.1805 171.195 33.5411H169.942C169.9 33.3097 169.798 33.1208 169.634 32.9757L169.551 32.9093C169.315 32.7348 169.006 32.6525 168.636 32.6525C168.251 32.6525 167.942 32.7305 167.72 32.8947L167.778 32.9747L167.719 32.8947L167.717 32.8966C167.505 33.064 167.395 33.2809 167.394 33.5411C167.382 33.7961 167.477 34.0061 167.67 34.1573L167.759 34.2189L167.762 34.2208C167.941 34.3197 168.143 34.4039 168.366 34.4708L168.598 34.5323L169.231 34.674V34.6749C169.535 34.7449 169.811 34.8385 170.061 34.9542L170.3 35.0773C170.574 35.2313 170.794 35.4158 170.96 35.6329L171.027 35.7277L171.028 35.7286C171.205 35.9867 171.296 36.3035 171.296 36.6876C171.296 37.3047 171.064 37.7952 170.604 38.1642C170.14 38.5265 169.487 38.714 168.636 38.714C167.888 38.714 167.281 38.5676 166.811 38.2794L166.617 38.1476V38.1466L166.444 38.0011C166.087 37.6586 165.894 37.1877 165.869 36.5812H167.133C167.172 36.9217 167.319 37.1888 167.577 37.3712V37.3722C167.853 37.5703 168.201 37.6603 168.62 37.6603C168.964 37.6602 169.255 37.5975 169.486 37.465L169.582 37.4034H169.583C169.836 37.2201 169.973 36.973 169.973 36.672C169.973 36.4047 169.846 36.1916 169.608 36.048H169.609C169.44 35.9413 169.226 35.8457 168.967 35.7638L168.691 35.6866L167.914 35.4962H167.913C167.395 35.3701 166.978 35.1854 166.659 34.9435L166.528 34.8361C166.203 34.5402 166.038 34.1482 166.038 33.6417C166.038 33.2908 166.122 32.9737 166.291 32.6915L166.369 32.5724C166.587 32.2642 166.897 32.0211 167.296 31.8448L167.295 31.8439C167.693 31.6716 168.144 31.5831 168.651 31.5831Z" fill="#00702D" stroke="white" stroke-width="0.2"/>
<path d="M176.351 31.6942L178.74 38.619H177.335L176.834 37.0692L176.812 36.9999H174.096L174.073 37.0692L173.572 38.619H172.167L174.557 31.6942H176.351ZM175.327 33.1825L174.454 35.8798L174.412 36.0106H176.495L176.453 35.8798L175.58 33.1825L175.558 33.1132H175.349L175.327 33.1825Z" fill="#00702D" stroke="white" stroke-width="0.2"/>
</svg>
